<?xml version="1.0" standalone="no"?><!DOCTYPE svg PUBLIC "-//W3C//DTD SVG 1.1//EN" "http://www.w3.org/Graphics/SVG/1.1/DTD/svg11.dtd"><svg t="1597234330836" class="icon" viewBox="0 0 1025 1024" version="1.1" xmlns="http://www.w3.org/2000/svg" p-id="2541" xmlns:xlink="http://www.w3.org/1999/xlink" width="200.1953125" height="200"><defs><style type="text/css"></style></defs><path d="M962.194061 0l-347.310996 0c-34.410159 0-62.401499 27.991341-62.401499 62.434586l0 345.325794c0 34.443245 27.991341 62.434586 62.401499 62.434586l347.310996 0c34.443245 0 62.434586-27.991341 62.434586-62.434586l0-345.325794C1024.628647 27.991341 996.637307 0 962.194061 0L962.194061 0zM966.594591 361.571359c0 27.5943-22.465863 50.060163-50.060163 50.060163l-256.024815 0c-27.5943 0-50.060163-22.465863-50.060163-50.060163l0-254.238134c0-27.5943 22.465863-50.060163 50.060163-50.060163l256.024815 0c27.5943 0 50.060163 22.465863 50.060163 50.060163L966.594591 361.571359 966.594591 361.571359z" p-id="2542"></path><path d="M410.638922 553.805034l-347.310996 0c-34.443245 0-62.434586 27.991341-62.434586 62.434586l0 345.325794c0 34.443245 27.991341 62.434586 62.434586 62.434586l347.310996 0c34.410159 0 62.401499-27.991341 62.401499-62.434586L473.040421 616.206533C473.073508 581.796375 445.049081 553.805034 410.638922 553.805034L410.638922 553.805034zM415.006365 915.376393c0 27.5943-22.432777 50.060163-50.060163 50.060163l-256.024815 0c-27.5943 0-50.060163-22.465863-50.060163-50.060163l0-254.27122c0-27.5943 22.432777-50.060163 50.060163-50.060163l256.024815 0c27.5943 0 50.060163 22.465863 50.060163 50.060163L415.006365 915.376393 415.006365 915.376393z" p-id="2543"></path><path d="M62.434586 471.088307l347.310996 0c34.410159 0 62.434586-27.991341 62.434586-62.434586l0-345.325794c0-34.443245-27.991341-62.434586-62.434586-62.434586l-347.310996 0c-34.410159 0-62.434586 28.024427-62.434586 62.434586l0 345.325794C0 443.063879 28.024427 471.088307 62.434586 471.088307L62.434586 471.088307zM57.967883 108.19348c0-27.5943 22.465863-50.027077 50.060163-50.027077l256.024815 0c27.5943 0 50.060163 22.432777 50.060163 50.027077l0 254.27122c0 27.5943-22.465863 50.060163-50.060163 50.060163l-256.024815 0c-27.5943 0-50.060163-22.465863-50.060163-50.060163L57.967883 108.19348 57.967883 108.19348z" p-id="2544"></path><path d="M1024.628647 609.721542c0 17.006559-13.764063 30.770623-30.770623 30.770623l-410.605835 0c-17.006559 0-30.770623-13.79715-30.770623-30.770623l0 0c0-17.006559 13.79715-30.770623 30.770623-30.770623l410.605835 0C1010.864584 578.950919 1024.628647 592.748069 1024.628647 609.721542L1024.628647 609.721542 1024.628647 609.721542z" p-id="2545"></path><path d="M1024.628647 788.885974c0 17.006559-13.764063 30.770623-30.770623 30.770623l-410.605835 0c-17.006559 0-30.770623-13.764063-30.770623-30.770623l0 0c0-17.006559 13.79715-30.770623 30.770623-30.770623l410.605835 0C1010.864584 758.115351 1024.628647 771.879415 1024.628647 788.885974L1024.628647 788.885974 1024.628647 788.885974z" p-id="2546"></path><path d="M1024.628647 968.050406c0 17.006559-13.764063 30.770623-30.770623 30.770623l-410.605835 0c-17.006559 0-30.770623-13.764063-30.770623-30.770623l0 0c0-17.006559 13.79715-30.770623 30.770623-30.770623l410.605835 0C1010.864584 937.246696 1024.628647 951.043846 1024.628647 968.050406L1024.628647 968.050406 1024.628647 968.050406z" p-id="2547"></path></svg>