<?xml version="1.0" standalone="no"?><!DOCTYPE svg PUBLIC "-//W3C//DTD SVG 1.1//EN" "http://www.w3.org/Graphics/SVG/1.1/DTD/svg11.dtd"><svg t="1597234265432" class="icon" viewBox="0 0 1024 1024" version="1.1" xmlns="http://www.w3.org/2000/svg" p-id="1630" xmlns:xlink="http://www.w3.org/1999/xlink" width="200" height="200"><defs><style type="text/css"></style></defs><path d="M896 1024 128 1024c-70.4 0-128-57.6-128-128L0 128c0-70.4 57.6-128 128-128l768 0c70.4 0 128 57.6 128 128l0 768C1024 966.4 966.4 1024 896 1024zM960 192c0-70.4-57.6-128-128-128L192 64C121.6 64 64 121.6 64 192l0 640c0 70.4 57.6 128 128 128l640 0c70.4 0 128-57.6 128-128L960 192zM384 768l448 0 0 64L384 832 384 768zM384 576l448 0 0 64L384 640 384 576zM384 384l448 0 0 64L384 448 384 384zM384 192l448 0 0 64L384 256 384 192zM192 768l64 0 0 64L192 832 192 768zM192 576l64 0 0 64L192 640 192 576zM192 384l64 0 0 64L192 448 192 384zM192 192l64 0 0 64L192 256 192 192z" p-id="1631"></path></svg>