<?xml version="1.0" standalone="no"?><!DOCTYPE svg PUBLIC "-//W3C//DTD SVG 1.1//EN" "http://www.w3.org/Graphics/SVG/1.1/DTD/svg11.dtd"><svg t="1597234612587" class="icon" viewBox="0 0 1024 1024" version="1.1" xmlns="http://www.w3.org/2000/svg" p-id="4518" xmlns:xlink="http://www.w3.org/1999/xlink" width="200" height="200"><defs><style type="text/css"></style></defs><path d="M928 1024h-288a96 96 0 0 1-96-96v-288a96 96 0 0 1 96-96h288a96 96 0 0 1 96 96v288a96 96 0 0 1-96 96z m32-384a32 32 0 0 0-32-32h-288a32 32 0 0 0-32 32v288a32 32 0 0 0 32 32h288a32 32 0 0 0 32-32v-288z m-32-160h-288a96 96 0 0 1-96-96V96a96 96 0 0 1 96-96h288a96 96 0 0 1 96 96v288a96 96 0 0 1-96 96z m32-384a32 32 0 0 0-32-32h-288a32 32 0 0 0-32 32v288a32 32 0 0 0 32 32h288a32 32 0 0 0 32-32V96zM384 1024H96a96 96 0 0 1-96-96v-288a96 96 0 0 1 96-96h288a96 96 0 0 1 96 96v288a96 96 0 0 1-96 96z m32-384a32 32 0 0 0-32-32H96a32 32 0 0 0-32 32v288a32 32 0 0 0 32 32h288a32 32 0 0 0 32-32v-288z m-32-160H96a96 96 0 0 1-96-96V96a96 96 0 0 1 96-96h288a96 96 0 0 1 96 96v288a96 96 0 0 1-96 96z m32-384a32 32 0 0 0-32-32H96a32 32 0 0 0-32 32v288a32 32 0 0 0 32 32h288a32 32 0 0 0 32-32V96z" p-id="4519"></path></svg>