<?xml version="1.0" standalone="no"?><!DOCTYPE svg PUBLIC "-//W3C//DTD SVG 1.1//EN" "http://www.w3.org/Graphics/SVG/1.1/DTD/svg11.dtd"><svg t="1597325095192" class="icon" viewBox="0 0 1024 1024" version="1.1" xmlns="http://www.w3.org/2000/svg" p-id="1969" xmlns:xlink="http://www.w3.org/1999/xlink" width="200" height="200"><defs><style type="text/css"></style></defs><path d="M1024 512c0-281.6-230.4-512-512-512S0 230.4 0 512s230.4 512 512 512 512-230.4 512-512z m-512 448c-249.6 0-448-198.4-448-448s198.4-448 448-448 448 198.4 448 448-198.4 448-448 448z" p-id="1970"></path><path d="M627.2 505.6c44.8-38.4 76.8-89.6 76.8-153.6 0-108.8-83.2-192-192-192s-192 83.2-192 192c0 64 32 115.2 76.8 153.6-102.4 44.8-172.8 147.2-172.8 262.4 0 19.2 12.8 32 32 32s32-12.8 32-32c0-121.6 102.4-224 224-224s224 102.4 224 224c0 19.2 12.8 32 32 32s32-12.8 32-32c0-115.2-70.4-217.6-172.8-262.4zM512 480c-70.4 0-128-57.6-128-128s57.6-128 128-128 128 57.6 128 128-57.6 128-128 128z" p-id="1971"></path></svg>