<?xml version="1.0" standalone="no"?><!DOCTYPE svg PUBLIC "-//W3C//DTD SVG 1.1//EN" "http://www.w3.org/Graphics/SVG/1.1/DTD/svg11.dtd"><svg t="1597234110534" class="icon" viewBox="0 0 1024 1024" version="1.1" xmlns="http://www.w3.org/2000/svg" p-id="616" xmlns:xlink="http://www.w3.org/1999/xlink" width="200" height="200"><defs><style type="text/css"></style></defs><path d="M142.2 332.2h-1.7C63.6 332.2 1.3 374 1.3 425.7v492.2c0 51.6 62.3 93.5 139.2 93.5h1.7c76.9 0 139.2-41.8 139.2-93.5V425.7c0-51.6-62.3-93.5-139.2-93.5z m77 585.7c0 28.5-34.5 51.7-77 51.7h-1.7c-42.5 0-77-23.1-77-51.7V425.7c0-28.5 34.5-51.7 77-51.7h1.7c42.5 0 77 23.1 77 51.7v492.2z m633.2-756.2c-8.7 0-15.7 6.9-15.7 15.4v61.5c0 8.5 7 15.4 15.7 15.4s15.7-6.9 15.7-15.4v-61.5c0.1-8.5-7-15.4-15.7-15.4z m0 141.1c-8.7 0-15.7 6.9-15.7 15.4v6.4c0 8.5 7 15.4 15.7 15.4s15.7-6.9 15.7-15.4v-6.4c0.1-8.5-7-15.4-15.7-15.4zM523 132.5h-1.7c-76.9 0-139.2 54.1-139.2 120.9v636.9c0 66.8 62.3 120.9 139.2 120.9h1.7c76.9 0 139.2-54.2 139.2-120.9V253.4c0-66.7-62.3-120.9-139.2-120.9z m76.9 757.9c0 36.9-34.5 66.9-77 66.9h-1.7c-42.5 0-77-29.9-77-66.9v-637c0-36.9 34.5-66.9 77-66.9h1.7c42.5 0 77 29.9 77 66.9v637zM883.4 12.7h-1.7c-76.9 0-139.2 61.5-139.2 137.4v723.8c0 75.9 62.3 137.4 139.2 137.4h1.7c76.9 0 139.2-61.5 139.2-137.4V150.1c0-75.9-62.3-137.4-139.2-137.4z m77 861.2c0 42-34.5 76-77 76h-1.7c-42.5 0-77-34-77-76V150.1c0-42 34.5-76 77-76h1.7c42.5 0 77 34 77 76v723.8z" p-id="617"></path></svg>