<?xml version="1.0" standalone="no"?><!DOCTYPE svg PUBLIC "-//W3C//DTD SVG 1.1//EN" "http://www.w3.org/Graphics/SVG/1.1/DTD/svg11.dtd"><svg t="1597234700442" class="icon" viewBox="0 0 1024 1024" version="1.1" xmlns="http://www.w3.org/2000/svg" p-id="5841" xmlns:xlink="http://www.w3.org/1999/xlink" width="200" height="200"><defs><style type="text/css"></style></defs><path d="M277.57056 394.9568H247.808V119.97184a27.8272 27.8272 0 0 0-55.65952 0V394.9568h-29.80352A80.48128 80.48128 0 0 0 81.92 475.3152v253.66016a80.4864 80.4864 0 0 0 80.41984 80.3584h29.78304v94.72a27.8272 27.8272 0 0 0 55.65952 0v-94.72h29.78304a80.4864 80.4864 0 0 0 80.42496-80.36352V475.3152A80.48128 80.48128 0 0 0 277.57056 394.9568z m24.76032 334.01344a24.77568 24.77568 0 0 1-24.76032 24.73984h-115.2a24.77568 24.77568 0 0 1-24.76032-24.73984V475.3152A24.7808 24.7808 0 0 1 162.34496 450.56h115.2a24.7808 24.7808 0 0 1 24.76032 24.73984v253.66016zM866.77504 394.9568h-29.78304V119.97184a27.83232 27.83232 0 0 0-55.65952 0V394.9568h-29.78304a80.48128 80.48128 0 0 0-80.41984 80.3584v253.66016a80.4864 80.4864 0 0 0 80.41984 80.3584h29.76256v94.72a27.83232 27.83232 0 0 0 55.65952 0v-94.72h29.78304A80.4864 80.4864 0 0 0 947.2 728.97024V475.3152a80.48128 80.48128 0 0 0-80.42496-80.3584z m24.76032 334.01344a24.77568 24.77568 0 0 1-24.76032 24.73984h-115.2a24.77568 24.77568 0 0 1-24.76032-24.73984V475.3152A24.7808 24.7808 0 0 1 751.54944 450.56h115.2a24.77568 24.77568 0 0 1 24.76032 24.73984v253.66016z m-378.43456-129.27488a27.82208 27.82208 0 0 0-27.83232 27.80672v276.52608a27.8272 27.8272 0 0 0 55.65952 0v-276.52608a27.81696 27.81696 0 0 0-27.8272-27.80672z m0-507.53024a27.81696 27.81696 0 0 0-27.83232 27.80672v98.00704a27.8272 27.8272 0 0 0 55.65952 0V119.97184A27.81696 27.81696 0 0 0 513.1008 92.16z" fill="#2966C1" p-id="5842"></path><path d="M575.66208 623.13984H459.61728a80.70144 80.70144 0 0 1-80.99328-80.22016V289.6896a80.70144 80.70144 0 0 1 80.99328-80.22528h116.0448a80.70144 80.70144 0 0 1 80.98816 80.22528v253.2352a80.70144 80.70144 0 0 1-80.98816 80.21504zM459.61728 264.9856A24.84736 24.84736 0 0 0 434.688 289.6896v253.2352a24.84736 24.84736 0 0 0 24.93952 24.69888h116.0448a24.84736 24.84736 0 0 0 24.9344-24.69888V289.6896a24.84736 24.84736 0 0 0-24.9344-24.69888H459.61728z" fill="#FD9A16" p-id="5843"></path></svg>