<?xml version="1.0" standalone="no"?><!DOCTYPE svg PUBLIC "-//W3C//DTD SVG 1.1//EN" "http://www.w3.org/Graphics/SVG/1.1/DTD/svg11.dtd"><svg t="1597234412116" class="icon" viewBox="0 0 1024 1024" version="1.1" xmlns="http://www.w3.org/2000/svg" p-id="3380" xmlns:xlink="http://www.w3.org/1999/xlink" width="200" height="200"><defs><style type="text/css"></style></defs><path d="M512 1024C229.667292 1024 0 794.332708 0 511.936008c0-282.268716 229.667292-511.936008 512-511.936008 282.332708 0 512 229.667292 512 511.936008 0 282.3967-229.667292 512.063992-512 512.063992z m0-916.685414A405.133358 405.133358 0 0 0 107.314586 511.936008c0 223.204099 181.481315 404.749406 404.685414 404.749406S916.685414 735.140107 916.685414 511.936008a405.133358 405.133358 0 0 0-404.685414-404.621422z" fill="#9883FF" p-id="3381"></path><path d="M431.498063 461.638295l-112.753906 290.395701 258.783652-172.778403 127.728034-307.289589-273.75778 189.672291z m73.334833 91.636546a31.868016 31.868016 0 1 1 31.996-31.868017 31.868016 31.868016 0 0 1-31.996 31.868017z" fill="#7867F9" p-id="3382"></path></svg>